<svg xmlns="http://www.w3.org/2000/svg" height="800" width="1200" viewBox="-17.85825 -5.38375 154.7715 32.3025"><path fill="#231F20" d="M7.759 14.57h10.524v6.223H0V.454h7.759V14.57M94.481.915l.065-.088H72.815v5.611h9.605c-.018.02-.044.046-.044.046-.416.563-10.214 13.733-10.59 14.235l-.067.087h22.096v-5.864H84.14c.021-.027.781-1.068.781-1.068C87.245 10.7 94.163 1.337 94.481.915m-62.65 14.844c-2.777 0-4.958-2.198-4.958-4.996 0-2.798 2.181-4.996 4.958-4.996 2.778 0 4.958 2.198 4.958 4.996 0 2.798-2.18 4.996-4.958 4.996m0-15.759c-6.428 0-12.105 3.916-12.105 10.787 0 6.87 5.716 10.748 12.105 10.748 6.39 0 12.106-3.878 12.106-10.748C43.937 3.916 38.26 0 31.831 0zm28.091.247c-2.199.033-4.555 1.082-5.934 3.161V.805h-7.096v19.988h7.096v-9.885c-.014-3.629 3.046-4.516 4.601-4.38 2.487.217 3.786 1.728 3.786 4.763l.007 9.502h7.091V9.238c0-5.599-4.107-9.072-9.551-8.991m47.943 15.513c-2.738 0-4.964-2.228-4.964-4.965 0-2.737 2.226-4.964 4.964-4.964 2.736 0 4.804 2.227 4.804 4.964 0 2.737-2.067 4.965-4.804 4.965M112.088.665v2.036l-.095-.103c-1.399-1.501-3.841-2.4-5.992-2.4-2.938 0-5.608 1.015-7.515 2.858-1.859 1.796-2.884 4.539-2.884 7.724 0 6.054 4.506 10.619 10.478 10.619 1.818 0 4.318-.439 5.909-2.535l.099-.129v2.058h6.967V.665h-6.967z"/></svg>