<svg xmlns="http://www.w3.org/2000/svg" height="800" width="1200" viewBox="-8.14254 -3.96125 70.56868 23.7675"><path d="M25.7524 3.9612h2.4546v7.922h-1.819V6.5557l-2.3269 5.3273-2.449-5.334v5.334H19.915V3.961h2.426l1.7492 4.1004zm3.3591 0v7.922h4.571v-1.343h-2.799V8.5246h2.6832V7.169h-2.6832V5.3515h2.799V3.9612zm11.3884 3.9624c0 2.9488 3.0776 5.3086 6.3203 3.7302V9.9566c-2.4952 1.748-4.6672-.004-4.6316-1.9653.0243-1.3035.9003-2.5432 2.5947-2.6398.8333-.0473 1.3977.1598 2.037.7718v-1.765c-2.3432-1.3884-6.3204.1398-6.3204 3.5653m7.0682 3.9595h1.6849V4.0374h-1.6849zm3.7991-4.2481l2.546-3.5803h-1.9678L49.423 7.6283l2.9284 4.2548h1.9322z" fill="#231f20"/><path d="M34.4701 3.961v7.922h1.7782V7.627l2.9394 4.256h1.8955l-2.327-3.3263c1.0784-.4078 1.4283-1.3121 1.4283-2.216 0-.903-.7581-2.3796-2.5947-2.3796zm1.7782 1.3184h.7762c1.3123 0 1.3823.8578 1.3823 1.1782 0 .612-.5193 1.1332-1.1895 1.1332h-.969z" fill="#231f20"/><path d="M3.961 3.9613C3.961 1.7734 5.7348 0 7.9223 0c2.1883 0 3.9614 1.7734 3.9614 3.9613zm0 7.9224c0-2.1876 1.7738-3.9614 3.9613-3.9614-2.1875 0-3.9613-1.773-3.9613-3.961C1.7734 3.9613 0 5.7348 0 7.9223c0 2.1883 1.7734 3.9614 3.961 3.9614m0 0c0 2.1883 1.7738 3.9613 3.9613 3.9613 2.1883 0 3.9614-1.773 3.9614-3.9613zm3.9613-3.9614c2.1883 0 3.9614 1.7738 3.9614 3.9614 2.1879 0 3.9617-1.773 3.9617-3.9614 0-2.1875-1.7738-3.961-3.9617-3.961 0 2.188-1.773 3.961-3.9614 3.961" fill="#007a73"/></svg>